<mxfile host="app.diagrams.net" modified="2022-02-11T14:53:59.173Z" agent="5.0 (Windows NT 10.0; Win64; x64) AppleWebKit/537.36 (KHTML, like Gecko) Chrome/96.0.4664.174 YaBrowser/22.1.2.834 Yowser/2.5 Safari/537.36" etag="FPCORRT9p6Hzl6VIP2PD" version="16.5.6" type="github">
  <diagram id="no24y_fG2SvdXwP2ArJX" name="Page-1">
    <mxGraphModel dx="2062" dy="1149" grid="1" gridSize="10" guides="1" tooltips="1" connect="1" arrows="1" fold="1" page="1" pageScale="1" pageWidth="827" pageHeight="1169" math="0" shadow="0">
      <root>
        <mxCell id="0" />
        <mxCell id="1" parent="0" />
        <mxCell id="nBJgCK8kWhTIYrsZ_Vpa-8" value="" style="rounded=0;whiteSpace=wrap;html=1;" parent="1" vertex="1">
          <mxGeometry x="70" y="110" width="340" height="230" as="geometry" />
        </mxCell>
        <mxCell id="nBJgCK8kWhTIYrsZ_Vpa-1" value="Пулы ликвидности" style="rounded=0;whiteSpace=wrap;html=1;" parent="1" vertex="1">
          <mxGeometry x="90" y="130" width="120" height="60" as="geometry" />
        </mxCell>
        <mxCell id="nBJgCK8kWhTIYrsZ_Vpa-2" value="Индексатор" style="rounded=1;whiteSpace=wrap;html=1;" parent="1" vertex="1">
          <mxGeometry x="180" y="400" width="120" height="60" as="geometry" />
        </mxCell>
        <mxCell id="nBJgCK8kWhTIYrsZ_Vpa-3" value="БД" style="shape=cylinder3;whiteSpace=wrap;html=1;boundedLbl=1;backgroundOutline=1;size=15;" parent="1" vertex="1">
          <mxGeometry x="210" y="510" width="60" height="80" as="geometry" />
        </mxCell>
        <mxCell id="nBJgCK8kWhTIYrsZ_Vpa-4" value="" style="endArrow=classic;html=1;rounded=0;exitX=0.5;exitY=0;exitDx=0;exitDy=0;entryX=0.5;entryY=1;entryDx=0;entryDy=0;" parent="1" source="nBJgCK8kWhTIYrsZ_Vpa-2" target="nBJgCK8kWhTIYrsZ_Vpa-8" edge="1">
          <mxGeometry width="50" height="50" relative="1" as="geometry">
            <mxPoint x="390" y="610" as="sourcePoint" />
            <mxPoint x="440" y="560" as="targetPoint" />
          </mxGeometry>
        </mxCell>
        <mxCell id="nBJgCK8kWhTIYrsZ_Vpa-5" value="" style="endArrow=classic;html=1;rounded=0;exitX=0.5;exitY=1;exitDx=0;exitDy=0;entryX=0.5;entryY=0;entryDx=0;entryDy=0;entryPerimeter=0;" parent="1" source="nBJgCK8kWhTIYrsZ_Vpa-2" target="nBJgCK8kWhTIYrsZ_Vpa-3" edge="1">
          <mxGeometry width="50" height="50" relative="1" as="geometry">
            <mxPoint x="390" y="610" as="sourcePoint" />
            <mxPoint x="440" y="560" as="targetPoint" />
          </mxGeometry>
        </mxCell>
        <mxCell id="nBJgCK8kWhTIYrsZ_Vpa-6" value="Пулы ликвидности" style="rounded=0;whiteSpace=wrap;html=1;" parent="1" vertex="1">
          <mxGeometry x="270" y="120" width="120" height="60" as="geometry" />
        </mxCell>
        <mxCell id="nBJgCK8kWhTIYrsZ_Vpa-7" value="Пулы ликвидности" style="rounded=0;whiteSpace=wrap;html=1;" parent="1" vertex="1">
          <mxGeometry x="270" y="210" width="120" height="60" as="geometry" />
        </mxCell>
        <mxCell id="nBJgCK8kWhTIYrsZ_Vpa-9" value="Разные биржи" style="text;html=1;strokeColor=none;fillColor=none;align=center;verticalAlign=middle;whiteSpace=wrap;rounded=0;" parent="1" vertex="1">
          <mxGeometry x="110" y="240" width="60" height="30" as="geometry" />
        </mxCell>
        <mxCell id="nBJgCK8kWhTIYrsZ_Vpa-10" value="API" style="rounded=0;whiteSpace=wrap;html=1;" parent="1" vertex="1">
          <mxGeometry x="180" y="640" width="120" height="60" as="geometry" />
        </mxCell>
        <mxCell id="nBJgCK8kWhTIYrsZ_Vpa-11" value="Запросы" style="rounded=1;whiteSpace=wrap;html=1;" parent="1" vertex="1">
          <mxGeometry x="180" y="780" width="120" height="60" as="geometry" />
        </mxCell>
        <mxCell id="nBJgCK8kWhTIYrsZ_Vpa-13" value="" style="endArrow=classic;startArrow=classic;html=1;rounded=0;exitX=0.5;exitY=0;exitDx=0;exitDy=0;" parent="1" source="nBJgCK8kWhTIYrsZ_Vpa-10" target="nBJgCK8kWhTIYrsZ_Vpa-3" edge="1">
          <mxGeometry width="50" height="50" relative="1" as="geometry">
            <mxPoint x="170" y="500" as="sourcePoint" />
            <mxPoint x="220" y="450" as="targetPoint" />
          </mxGeometry>
        </mxCell>
        <mxCell id="nBJgCK8kWhTIYrsZ_Vpa-14" value="" style="endArrow=classic;startArrow=classic;html=1;rounded=0;exitX=0.5;exitY=0;exitDx=0;exitDy=0;entryX=0.5;entryY=1;entryDx=0;entryDy=0;" parent="1" source="nBJgCK8kWhTIYrsZ_Vpa-11" target="nBJgCK8kWhTIYrsZ_Vpa-10" edge="1">
          <mxGeometry width="50" height="50" relative="1" as="geometry">
            <mxPoint x="170" y="450" as="sourcePoint" />
            <mxPoint x="220" y="400" as="targetPoint" />
          </mxGeometry>
        </mxCell>
        <mxCell id="nBJgCK8kWhTIYrsZ_Vpa-15" value="запрашиваемая пара, сумма обмена, временной интервал." style="rounded=1;whiteSpace=wrap;html=1;" parent="1" vertex="1">
          <mxGeometry x="290" y="710" width="240" height="60" as="geometry" />
        </mxCell>
        <mxCell id="nBJgCK8kWhTIYrsZ_Vpa-16" value="Зачем временной интервал?" style="ellipse;shape=cloud;whiteSpace=wrap;html=1;fillColor=#fff2cc;strokeColor=#d6b656;" parent="1" vertex="1">
          <mxGeometry x="540" y="710" width="120" height="80" as="geometry" />
        </mxCell>
        <mxCell id="nBJgCK8kWhTIYrsZ_Vpa-17" value="двухшаговые межбиржевые возможности? - одна покупка, одна продажа" style="ellipse;shape=cloud;whiteSpace=wrap;html=1;fillColor=#d5e8d4;strokeColor=#82b366;" parent="1" vertex="1">
          <mxGeometry x="670" y="100" width="240" height="110" as="geometry" />
        </mxCell>
        <mxCell id="nBJgCK8kWhTIYrsZ_Vpa-18" value="&lt;a href=&quot;https://dappetizer.dev/&quot; style=&quot;cursor: pointer ; overflow-wrap: break-word ; text-decoration: inherit&quot; class=&quot;notion-link-token notion-enable-hover&quot; target=&quot;_blank&quot;&gt;&lt;span style=&quot;border-bottom: 0.05em solid ; border-color: rgba(55 , 53 , 47 , 0.4) ; opacity: 0.7&quot; class=&quot;link-annotation-unknown-block-id-355227439&quot;&gt;Dappetizer&lt;/span&gt;&lt;/a&gt;" style="rounded=1;whiteSpace=wrap;html=1;" parent="1" vertex="1">
          <mxGeometry x="10" y="400" width="120" height="60" as="geometry" />
        </mxCell>
        <mxCell id="nBJgCK8kWhTIYrsZ_Vpa-19" value="" style="endArrow=classic;html=1;rounded=0;exitX=1;exitY=0.5;exitDx=0;exitDy=0;entryX=0;entryY=0.5;entryDx=0;entryDy=0;" parent="1" source="nBJgCK8kWhTIYrsZ_Vpa-18" target="nBJgCK8kWhTIYrsZ_Vpa-2" edge="1">
          <mxGeometry width="50" height="50" relative="1" as="geometry">
            <mxPoint x="170" y="490" as="sourcePoint" />
            <mxPoint x="220" y="440" as="targetPoint" />
          </mxGeometry>
        </mxCell>
        <mxCell id="nBJgCK8kWhTIYrsZ_Vpa-20" value="Hasura" style="rounded=1;whiteSpace=wrap;html=1;" parent="1" vertex="1">
          <mxGeometry x="330" y="640" width="120" height="60" as="geometry" />
        </mxCell>
        <mxCell id="nBJgCK8kWhTIYrsZ_Vpa-21" value="" style="endArrow=classic;html=1;rounded=0;exitX=0;exitY=0.5;exitDx=0;exitDy=0;entryX=1;entryY=0.5;entryDx=0;entryDy=0;" parent="1" source="nBJgCK8kWhTIYrsZ_Vpa-20" target="nBJgCK8kWhTIYrsZ_Vpa-10" edge="1">
          <mxGeometry width="50" height="50" relative="1" as="geometry">
            <mxPoint x="170" y="490" as="sourcePoint" />
            <mxPoint x="220" y="440" as="targetPoint" />
          </mxGeometry>
        </mxCell>
        <mxCell id="nBJgCK8kWhTIYrsZ_Vpa-22" value="GraphQl" style="rounded=1;whiteSpace=wrap;html=1;" parent="1" vertex="1">
          <mxGeometry x="20" y="640" width="120" height="60" as="geometry" />
        </mxCell>
        <mxCell id="nBJgCK8kWhTIYrsZ_Vpa-23" value="" style="endArrow=classic;html=1;rounded=0;exitX=1;exitY=0.5;exitDx=0;exitDy=0;entryX=0;entryY=0.5;entryDx=0;entryDy=0;" parent="1" source="nBJgCK8kWhTIYrsZ_Vpa-22" target="nBJgCK8kWhTIYrsZ_Vpa-10" edge="1">
          <mxGeometry width="50" height="50" relative="1" as="geometry">
            <mxPoint x="170" y="490" as="sourcePoint" />
            <mxPoint x="220" y="440" as="targetPoint" />
          </mxGeometry>
        </mxCell>
        <mxCell id="nBJgCK8kWhTIYrsZ_Vpa-24" value="PostrgeSQL" style="rounded=1;whiteSpace=wrap;html=1;" parent="1" vertex="1">
          <mxGeometry x="50" y="520" width="120" height="60" as="geometry" />
        </mxCell>
        <mxCell id="nBJgCK8kWhTIYrsZ_Vpa-25" value="" style="endArrow=classic;html=1;rounded=0;exitX=1;exitY=0.5;exitDx=0;exitDy=0;entryX=0;entryY=0.5;entryDx=0;entryDy=0;entryPerimeter=0;" parent="1" source="nBJgCK8kWhTIYrsZ_Vpa-24" target="nBJgCK8kWhTIYrsZ_Vpa-3" edge="1">
          <mxGeometry width="50" height="50" relative="1" as="geometry">
            <mxPoint x="340" y="490" as="sourcePoint" />
            <mxPoint x="390" y="440" as="targetPoint" />
          </mxGeometry>
        </mxCell>
        <mxCell id="nBJgCK8kWhTIYrsZ_Vpa-26" value="Условия сделок на Tezos" style="rounded=1;whiteSpace=wrap;html=1;fontColor=#000000;" parent="1" vertex="1">
          <mxGeometry x="520" y="40" width="120" height="60" as="geometry" />
        </mxCell>
        <mxCell id="nBJgCK8kWhTIYrsZ_Vpa-27" value="Сколько бирж?" style="ellipse;shape=cloud;whiteSpace=wrap;html=1;fillColor=#fff2cc;strokeColor=#d6b656;" parent="1" vertex="1">
          <mxGeometry x="430" y="90" width="120" height="80" as="geometry" />
        </mxCell>
        <mxCell id="nBJgCK8kWhTIYrsZ_Vpa-28" value="Схема базы?&lt;br&gt;(что собирать о пулах ликвидности)" style="ellipse;shape=cloud;whiteSpace=wrap;html=1;fillColor=#fff2cc;strokeColor=#d6b656;" parent="1" vertex="1">
          <mxGeometry x="320" y="510" width="120" height="80" as="geometry" />
        </mxCell>
        <mxCell id="nBJgCK8kWhTIYrsZ_Vpa-29" value="Что такое пул ликвидности? Он соответствует один к одному бирже" style="ellipse;shape=cloud;whiteSpace=wrap;html=1;fillColor=#fff2cc;strokeColor=#d6b656;" parent="1" vertex="1">
          <mxGeometry x="430" y="210" width="120" height="80" as="geometry" />
        </mxCell>
      </root>
    </mxGraphModel>
  </diagram>
</mxfile>
